<svg width="72" height="27" viewBox="0 0 72 27" fill="none" xmlns="http://www.w3.org/2000/svg">
<path d="M0.988 26V0.799998H12.436C15.172 0.799998 17.584 1.328 19.672 2.384C21.76 3.416 23.392 4.868 24.568 6.74C25.744 8.612 26.332 10.832 26.332 13.4C26.332 15.944 25.744 18.164 24.568 20.06C23.392 21.932 21.76 23.396 19.672 24.452C17.584 25.484 15.172 26 12.436 26H0.988ZM6.82 21.212H12.148C13.828 21.212 15.28 20.9 16.504 20.276C17.752 19.628 18.712 18.716 19.384 17.54C20.08 16.364 20.428 14.984 20.428 13.4C20.428 11.792 20.08 10.412 19.384 9.26C18.712 8.084 17.752 7.184 16.504 6.56C15.28 5.912 13.828 5.588 12.148 5.588H6.82V21.212ZM39.9462 26.288C37.7382 26.288 35.7942 25.856 34.1142 24.992C32.4582 24.128 31.1742 22.952 30.2622 21.464C29.3502 19.952 28.8942 18.236 28.8942 16.316C28.8942 14.372 29.3382 12.656 30.2262 11.168C31.1382 9.656 32.3742 8.48 33.9342 7.64C35.4942 6.776 37.2582 6.344 39.2262 6.344C41.1222 6.344 42.8262 6.752 44.3382 7.568C45.8742 8.36 47.0862 9.512 47.9742 11.024C48.8622 12.512 49.3062 14.3 49.3062 16.388C49.3062 16.604 49.2942 16.856 49.2702 17.144C49.2462 17.408 49.2222 17.66 49.1982 17.9H33.4662V14.624H46.2462L44.0862 15.596C44.0862 14.588 43.8822 13.712 43.4742 12.968C43.0662 12.224 42.5022 11.648 41.7822 11.24C41.0622 10.808 40.2222 10.592 39.2622 10.592C38.3022 10.592 37.4502 10.808 36.7062 11.24C35.9862 11.648 35.4222 12.236 35.0142 13.004C34.6062 13.748 34.4022 14.636 34.4022 15.668V16.532C34.4022 17.588 34.6302 18.524 35.0862 19.34C35.5662 20.132 36.2262 20.744 37.0662 21.176C37.9302 21.584 38.9382 21.788 40.0902 21.788C41.1222 21.788 42.0222 21.632 42.7902 21.32C43.5822 21.008 44.3022 20.54 44.9502 19.916L47.9382 23.156C47.0502 24.164 45.9342 24.944 44.5902 25.496C43.2462 26.024 41.6982 26.288 39.9462 26.288ZM57.9496 26L49.8136 6.632H55.6096L62.3776 23.3H59.4976L66.5176 6.632H71.9176L63.7456 26H57.9496Z" fill="#FF8906"/>
</svg>
